<?xml version="1.0" encoding="utf-8"?>
<!-- Svg Vector Icons : http://www.onlinewebfonts.com/icon -->
<!DOCTYPE svg PUBLIC "-//W3C//DTD SVG 1.1//EN" "http://www.w3.org/Graphics/SVG/1.1/DTD/svg11.dtd">
<svg version="1.1" xmlns="http://www.w3.org/2000/svg" xmlns:xlink="http://www.w3.org/1999/xlink" x="0px" y="0px" viewBox="0 0 1000 1000" enable-background="new 0 0 1000 1000" xml:space="preserve">
<metadata> Svg Vector Icons : http://www.onlinewebfonts.com/icon </metadata>
<g><path d="M500,9.7c-43.6,107.1-70,176.9-118.5,280.8c29.8,31.6,66.3,68.4,125.8,109.9c-63.9-26.3-107.4-52.6-139.9-80.1C305.1,450.2,207.7,635,10,990.1c155.4-89.8,275.9-145,388-166.2c-4.8-20.8-7.6-43.2-7.4-66.5l0.2-4.9c2.5-99.5,54.3-176,115.5-170.9c61.4,5.1,109,90.1,106.5,189.8c-0.5,18.7-2.6,36.7-6.3,53.4c111.1,21.7,230.2,76.9,383.5,165.5c-30.2-55.6-57.1-105.8-82.9-153.6c-40.6-31.4-82.9-72.3-169.3-116.8C797,735.2,839.5,753,872.7,773C611.1,285.4,590,220.5,500,9.7z"/></g>
</svg>